<svg id="Layer_1" data-name="Layer 1" xmlns="http://www.w3.org/2000/svg" xmlns:xlink="http://www.w3.org/1999/xlink" viewBox="0 0 1535.81 2047.74"><defs><style>.cls-1,.cls-2{fill:#e21f26;}.cls-2{font-size:143.6px;stroke:#fff;stroke-miterlimit:10;stroke-width:5px;font-family:Helvetica-Bold, Helvetica;font-weight:700;letter-spacing:-0.03em;}.cls-3{letter-spacing:-0.08em;}.cls-4{letter-spacing:-0.04em;}.cls-5{letter-spacing:-0.02em;}.cls-6{letter-spacing:-0.01em;}.cls-7{letter-spacing:-0.03em;}.cls-8{fill:#fff;}.cls-9{fill:#f05423;}.cls-10{fill:#84c441;}.cls-11{fill:#2dabe2;}.cls-12{fill:#f9bc15;}</style></defs><rect class="cls-1" y="1893.12" width="1535.81" height="169.53"/><text class="cls-2" transform="translate(81.62 428.15) rotate(-10.58) scale(1.02 1)">#<tspan class="cls-3" x="76.25" y="0">W</tspan><tspan x="199.61" y="0">orkHa</tspan><tspan class="cls-4" x="588.62" y="0">r</tspan><tspan class="cls-5" x="638.02" y="0">dPl</tspan><tspan class="cls-4" x="850.69" y="0">a</tspan><tspan class="cls-5" x="924.08" y="0">ySma</tspan><tspan class="cls-6" x="1292.85" y="0">r</tspan><tspan class="cls-7" x="1347.99" y="0">t</tspan></text><path id="path1127" class="cls-8" d="M190.93,1968.61h5.59a1.12,1.12,0,0,0,1-1l1.19-6.5a1.18,1.18,0,0,0-.19-.82,1,1,0,0,0-.76-.38h-5.64a1,1,0,0,0-1,.82l-1.2,6.5a1.36,1.36,0,0,0,.19,1,1.11,1.11,0,0,0,.82.39"/><path id="path1121" class="cls-8" d="M370.05,1970.47a.73.73,0,0,0-.24-.62,1,1,0,0,0-.77-.33h-5a.93.93,0,0,0-.95.71l-.39,1.92a11.63,11.63,0,0,0-3.87-2.3l-.52-.24a.3.3,0,0,0-.2,0c-5.49-1.19-11,.43-15.54,4.69a21,21,0,0,0-5.06,7.08l5-27a.84.84,0,0,0-.15-.67.68.68,0,0,0-.57-.29h-6.74a.62.62,0,0,0-.53.29S314.2,1980.32,311,1984c1.14-4.45,5.35-29.65,5.35-29.65v-.14a1.13,1.13,0,0,0-.14-.53.71.71,0,0,0-.58-.29h-7.07a.78.78,0,0,0-.58.29l-34,39.31a47,47,0,0,0-3.3-12c-4.45-9.13-14.3-12.24-20.13-7.31a2.82,2.82,0,0,0-.91.43c4.4-6.08,14.58-5.6,21.23,2a37.15,37.15,0,0,1,5.16,9,24.29,24.29,0,0,0,1-5.93,37.16,37.16,0,0,0-7.56-7.6c-8.32-5.59-18.22-3.54-20.94,3.39a4.65,4.65,0,0,0-.72,1.15c.77-7.46,9.85-12.14,19.37-8.84a35.33,35.33,0,0,1,9.27,5.45c0-.29-.14-.62-.19-.91a24.67,24.67,0,0,0-2.2-5.64,37.27,37.27,0,0,0-10.28-2.78c-10.23-.67-17.88,6.51-16.26,14.11,0,.14,0,.29,0,.43a3.5,3.5,0,0,0,0,.67c-3.44-6.93,2.11-15.78,12.2-17.74a37.27,37.27,0,0,1,10.57,0,24.45,24.45,0,0,0-5-4.07,35.82,35.82,0,0,0-10.18,2.73c-9.28,4.49-12.34,14.58-7.13,20.37a4.24,4.24,0,0,0,.63,1c-6.51-4.25-6.12-14.72,1.62-21.47a36.79,36.79,0,0,1,9.14-5.21,26.33,26.33,0,0,0-6.94-1,37.21,37.21,0,0,0-7.22,7.22c-5.78,8.61-3.35,18.94,4.16,21.23l.05,0,.1,0a5.41,5.41,0,0,0,.71.38c-7.74-.43-12.67-9.71-9.32-19.41a37.76,37.76,0,0,1,5-8.71,25.09,25.09,0,0,0-5.55,2.2,38.07,38.07,0,0,0-2.63,9.9c-.71,10.23,6.32,17.84,13.87,16.4H252a2,2,0,0,0,.76-.09c-6.88,3.39-15.73-2.16-17.69-12.2a35.79,35.79,0,0,1,0-10.23,25,25,0,0,0-4.3,5.4,38.31,38.31,0,0,0,2.63,9.71c4.54,9.32,14.73,12.38,20.46,7h.05l.1-.1a5.13,5.13,0,0,0,.71-.47c-4.2,6.55-14.72,6.21-21.51-1.58a42.63,42.63,0,0,1-5.17-9.47,2.09,2.09,0,0,0-.33-.67,1.22,1.22,0,0,0-.81-.29h-5.07a1.09,1.09,0,0,0-1,.77,6.52,6.52,0,0,0-.48,1.77,13.47,13.47,0,0,0-3.64-2.11s-.67-.24-.71-.24c-5.5-1.33-11.05.39-15.59,4.64a21,21,0,0,0-5.64,8.56l-.1.19,2.29-12.38a1,1,0,0,0-.23-.81,1,1,0,0,0-.77-.34h-5.64a1,1,0,0,0-1,.81l-5.59,30.46a1.24,1.24,0,0,0,.19.82c.19.24.48.19.76.19h5.6c.48,0,.91-.19,1-.67l2.25-12.39c0,.1.15,2.63.34,3.88a12.84,12.84,0,0,0,9.42,9.89c3.87.72,8-.28,12.14-2.82-.09.43-.19,1.1-.19,1.1v.19a.74.74,0,0,0,.19.53.92.92,0,0,0,.77.29h5c.48,0,.86-.19.95-.62l4.4-24a59.14,59.14,0,0,0,7.65,7.32c8.37,5.64,18.32,3.49,21-3.49a6.45,6.45,0,0,0,.66-1c-.76,7.46-9.85,12.1-19.36,8.85a36.79,36.79,0,0,1-8.7-5c0,.19,0,.33.09.52a24.67,24.67,0,0,0,2.3,5.84,36.25,36.25,0,0,0,9.66,2.53c10.23.72,17.83-6.36,16.4-13.87a3.64,3.64,0,0,0,.05-.76v-.29c3.2,6.89-2.35,15.54-12.29,17.5a37.37,37.37,0,0,1-10.05,0,24.2,24.2,0,0,0,4.5,3.73,38.24,38.24,0,0,0,10.09-2.68c9.08-4.44,12.19-14.15,7.46-20a4.28,4.28,0,0,0-.67-1.14c6.26,4.35,5.78,14.63-1.87,21.32a36.55,36.55,0,0,1-9.27,5.26,24.43,24.43,0,0,0,6.69,1.25,37.71,37.71,0,0,0,7.6-7.51c5.79-8.61,3.35-18.89-4.11-21.23a5.63,5.63,0,0,0-1-.48c7.79.43,12.72,9.66,9.37,19.41a36.73,36.73,0,0,1-5.45,9.28c.28,0,.57-.14.91-.19a26,26,0,0,0,5.35-2.06,37.66,37.66,0,0,0,2.87-10.42c.72-10-6.12-17.6-13.53-16.45a5.66,5.66,0,0,0-1-.1h-.19c6.84-3,15.35,2.54,17.26,12.39a29,29,0,0,1,.29,10.23,12.62,12.62,0,0,1-1.15,3.21c-.19.33-.43.76-.72,1.24,0,0,0,0,0,0a.88.88,0,0,0-.05.71.67.67,0,0,0,.67.43h8a.79.79,0,0,0,.58-.24s26.34-28.3,29.36-31.94c-1.15,6-3.49,20.47-5.65,31.32v.15a.87.87,0,0,0,.15.47.65.65,0,0,0,.57.29h6.27a.77.77,0,0,0,.57-.24s21.23-28.26,24.34-31.94c-1.29,6-3.54,20.61-5.69,31.27v.19a1,1,0,0,0,.14.48.69.69,0,0,0,.57.29h6.22a.77.77,0,0,0,.72-.57l2.29-13.2v.81c0,1.24-.43,2.49-.24,3.73a12.88,12.88,0,0,0,9.42,9.9c3.88.72,8-.29,12.15-2.82-.1.43-.19,1.1-.19,1.1v.19a1,1,0,0,0,.24.62c.19.24.48.19.76.19h5a.86.86,0,0,0,1-.67l4.54-24.1,1-6.55m-151.48,16c-1.15,4-4.59,7.65-8.28,8.56a9.51,9.51,0,0,1-6.6-.72,7.76,7.76,0,0,1-2.82-4.49,6,6,0,0,1-.19-1.72c0-3.64,2-7.13,5.5-9.8a9.54,9.54,0,0,1,7.27-1.44,6.8,6.8,0,0,1,4.45,3.25,8.26,8.26,0,0,1,1,4.07,7.24,7.24,0,0,1-.33,2.29m142.2,0c-1.24,4-4.92,7.75-8.6,8.66-2.83.48-4.88.09-6.32-.82a7.59,7.59,0,0,1-2.87-4.49,11.08,11.08,0,0,1-.14-1.72c0-3.64,2-7.13,5.5-9.8a9.54,9.54,0,0,1,7.27-1.44,6.79,6.79,0,0,1,4.44,3.25,8.24,8.24,0,0,1,1,4.07,5.07,5.07,0,0,1-.24,2.29"/><path id="path1123" class="cls-8" d="M425.32,1969.85a.93.93,0,0,0-.76-.33h-5.69c.29-1.77,1.58-8.37,1.58-8.37V1961a1,1,0,0,0-.24-.62,1,1,0,0,0-.77-.33H413.8a1,1,0,0,0-1,.81s-1.38,7.41-1.62,8.75h-3.16a1,1,0,0,0-.86.43.93.93,0,0,0-.81-.43h-6.5a1,1,0,0,0-.72.29s-4.54,5.78-7.22,8.7c.76-4.59,3.2-17.36,3.2-17.36v-.14a1,1,0,0,0-.24-.62.94.94,0,0,0-.76-.34H388.6a1,1,0,0,0-1,.82c-.15.76-.91,4.35-1.63,8.79,0,0,0,0,0,0a.89.89,0,0,0-.76-.39,13.51,13.51,0,0,0-6.7,2.2l.15-.71a1.25,1.25,0,0,0-.2-.82.89.89,0,0,0-.76-.28h-5.07a.94.94,0,0,0-1,.71l-.14.77-5.4,29.6a.92.92,0,0,0,.24.76.94.94,0,0,0,.76.34H372a.94.94,0,0,0,1-.77l3.73-18.36c1.24-4.64,4.3-6,7-6.45a2.15,2.15,0,0,0,.81-.1c-1.87,11.14-4.11,24.34-4.11,24.58a.85.85,0,0,0,.24.76.94.94,0,0,0,.76.34h5.45a1,1,0,0,0,1-.67c.14-.53,1.58-8.08,2.39-12.67,2,3.06,7.94,12.91,7.94,12.91a1,1,0,0,0,.81.43H405c.1,0,.24-.15.34-.19a.87.87,0,0,0,.43.19h6.36a1,1,0,0,0,.95-.82s4.31-23,4.55-24.57h6.07a1,1,0,0,0,1-.82l.86-4.92v-.14a1.18,1.18,0,0,0-.2-.77m-19.55,29.22c-2.25-3.64-8.66-14.16-9.23-15.07.76-.9,8.75-10.61,10.38-12.52l-.72,3.77a1.24,1.24,0,0,0,.19.82.94.94,0,0,0,.76.33h2.78c-.29,1.72-3.3,17.6-4.16,22.67"/><path id="path1125" class="cls-8" d="M189.3,1960.33a1,1,0,0,0-.76-.33h-5.07a1,1,0,0,0-1,.77s-1.72,8.46-2.34,11.23a13,13,0,0,0-3.68-2.1l-.53-.24a.27.27,0,0,0-.19-.05,17,17,0,0,0-15.54,4.69,21.12,21.12,0,0,0-5.69,8.56,19.66,19.66,0,0,0-1.77-7.13l-.05,0c-2.63-4.4-7.07-6.55-12.81-6.26h-.1a21.13,21.13,0,0,0-15.78,11l-.14.28,4.83-26.29a.69.69,0,0,0-.15-.63.67.67,0,0,0-.57-.28h-6.6a.58.58,0,0,0-.52.28s-20.47,26.64-23.67,30.27c1-4.54,5.3-29.6,5.3-29.6v-.14a.91.91,0,0,0-.14-.48.68.68,0,0,0-.57-.29H95.39a.74.74,0,0,0-.57.29l-40.6,46.67a.67.67,0,0,0-.1.77.82.82,0,0,0,.67.47h8.13a.7.7,0,0,0,.58-.28s25.77-29.17,28.78-32.81c-1.15,6-3.58,21.38-5.93,32.19v.14a.93.93,0,0,0,.15.48.67.67,0,0,0,.57.28h6.31a.7.7,0,0,0,.58-.28s21.42-29.17,24.57-32.85c-1.29,6-3.34,21.51-5.88,32.23v.19a.72.72,0,0,0,.72.71h6.07a.77.77,0,0,0,.72-.57l2.34-12.38a15.42,15.42,0,0,0,1.63,7.36,13.06,13.06,0,0,0,11.14,6.45,18.51,18.51,0,0,0,16.5-10.37,1,1,0,0,0-.86-1.44h-5.22a.86.86,0,0,0-.71.34c-2.49,2.77-5.26,4.21-8.23,4.25A7,7,0,0,1,130,1991a1.52,1.52,0,0,1-.09-.33,5.93,5.93,0,0,1-.29-1.34.59.59,0,0,1,0-.29H153a1.1,1.1,0,0,0,.67-.24,19.54,19.54,0,0,0,.34,3.73,12.85,12.85,0,0,0,9.42,9.9c3.87.72,8-.29,12.14-2.82-.1.43-.19,1.1-.19,1.1v.19a1,1,0,0,0,.24.62c.19.24.48.19.76.19h5a.87.87,0,0,0,1-.62l7.17-40a1,1,0,0,0-.19-.82m-57.57,21.52a10.35,10.35,0,0,1,7.51-5c3-.19,4.4.53,5.69,1.63a5.51,5.51,0,0,1,1.86,3.39c-1.58.05-12.72,0-15.06,0m47,2.44a9.62,9.62,0,0,1-.29,2.2,12.66,12.66,0,0,1-8.42,8.61c-2.82.52-5,.19-6.45-.72a7.37,7.37,0,0,1-2.87-4.49,8.56,8.56,0,0,1-.19-1.77c0-3.64,2.05-7.13,5.59-9.81a9.54,9.54,0,0,1,7.27-1.43,7.06,7.06,0,0,1,4.35,3.3,7.46,7.46,0,0,1,1,4.11"/><path id="path1129" class="cls-8" d="M425.28,1959.76a3.45,3.45,0,1,1-3.45,3.44,3.46,3.46,0,0,1,3.45-3.44m0,6.31a2.83,2.83,0,0,0,2.82-2.82,2.82,2.82,0,1,0-2.82,2.82m-.67-1h-.82v-3.73h1.73c.24,0,1.43,0,1.43,1.1a1.06,1.06,0,0,1-.67,1l.67,1.63h-.86l-.62-1.48h-.91l.05,1.48Zm0-2.11h.81c.29,0,.72,0,.72-.52,0-.24-.15-.48-.62-.48h-.91Z"/><path class="cls-8" d="M645.3,1954.64c.76.09,1.52.17,2.28.27a14.77,14.77,0,0,1,9.7,4.87c.23.26.44.53.65.8s.4.54.65.87c.48-1.33.94-2.59,1.39-3.85.17-.45.34-.89.48-1.35a.41.41,0,0,1,.48-.33c.82,0,1.64,0,2.46,0h11.06c.41,0,.45.08.31.46q-3.21,8.79-6.39,17.58a.48.48,0,0,1-.55.37q-6.08,0-12.16,0c-.42,0-.51-.12-.53-.52a8.53,8.53,0,0,0-2.58-6.26,8.64,8.64,0,0,0-7.86-2.15,3.62,3.62,0,0,0-1.11.46,2.53,2.53,0,0,0-.47,4.36,17,17,0,0,0,2.86,2c2.79,1.63,5.67,3.09,8.42,4.78a37.32,37.32,0,0,1,7.3,5.57,14.59,14.59,0,0,1,4,6.64,15.23,15.23,0,0,1-.76,9.24,16.59,16.59,0,0,1-9.82,9.6,25.1,25.1,0,0,1-12.28,1.54,23.35,23.35,0,0,1-10.28-3.57,12.49,12.49,0,0,1-3.54-3.38c-.43,1.23-.85,2.4-1.25,3.58a.73.73,0,0,1-.55.55c-3.06.91-6.09,1.93-9.23,2.57a38.87,38.87,0,0,1-15.31.24,16.32,16.32,0,0,1-6-2.33,8.52,8.52,0,0,1-4.06-7.37,37.56,37.56,0,0,1,.36-4.49c.17-1.49.38-3,.51-4.48a4,4,0,0,0-1-3.19,3.13,3.13,0,0,0-2.27-1c-.74,0-1.49,0-2.24,0a.31.31,0,0,0-.35.24l-2.8,7.89a1.67,1.67,0,0,0,0,.19h5c-.44,1.21-.86,2.38-1.28,3.55q-1.74,4.79-3.47,9.58a.45.45,0,0,1-.51.35H553.23c.26-.72.49-1.39.73-2,1.33-3.66,2.67-7.31,4-11a.57.57,0,0,1,.67-.45c1.59,0,3.19,0,4.79,0a.49.49,0,0,0,.57-.38q4.46-12.36,8.95-24.7c.12-.34.11-.45-.3-.45-1.85,0-3.7,0-5.55,0-.31,0-.41,0-.28-.39q2.33-6.4,4.61-12.82c.11-.3.29-.34.57-.34l24,0c2.25,0,4.5-.06,6.75,0a30.47,30.47,0,0,1,10.47,2,14.27,14.27,0,0,1,5.19,3.48,10,10,0,0,1,2.6,7.72,13.72,13.72,0,0,1-2.53,7.36A14.19,14.19,0,0,1,610,1982a18.29,18.29,0,0,1-3.34.47,1.37,1.37,0,0,0,.57.25,8.51,8.51,0,0,1,5.85,6.63,13.36,13.36,0,0,1-.17,5,21.39,21.39,0,0,0-.43,2.23c-.07.84.2,1.35.78,1.54a1.6,1.6,0,0,0,1.94-.68,15.64,15.64,0,0,0,1.23-3.1c.53-1.49,1-3,1.54-4.5a.42.42,0,0,1,.47-.35h13.83c.19,0,.37,0,.36.27-.05,3,1.47,5.13,3.79,6.79a8.6,8.6,0,0,0,4.84,1.63,5.64,5.64,0,0,0,1.68-.19,2.77,2.77,0,0,0,2.1-3.34,5.65,5.65,0,0,0-2.17-3.48,32.8,32.8,0,0,0-5.57-3.69,68,68,0,0,1-7.81-4.93,19.15,19.15,0,0,1-3.65-3.6,11.42,11.42,0,0,1-2.32-7.73,17.16,17.16,0,0,1,2.24-7.81,16.78,16.78,0,0,1,9.3-7.45,21.86,21.86,0,0,1,5.93-1.2c.09,0,.19,0,.24-.07Zm-51.61,23.89a19.94,19.94,0,0,0,2.94-.11c2.77-.44,4.78-2.14,5-4.94a3.33,3.33,0,0,0-3.27-3.92c-1.34-.06-2.69,0-4,0-.22,0-.3.09-.37.28-1,2.8-2.07,5.6-3.1,8.39-.09.24-.07.35.22.34C591.94,1978.52,592.74,1978.53,593.69,1978.53Z"/><path class="cls-8" d="M734.7,1956.07c-.52,1.14-.9,2.35-1.33,3.52q-3.36,9.17-6.68,18.33a.52.52,0,0,1-.6.41H712.16c.26-.71.5-1.4.76-2.08q1.17-3.2,2.36-6.39c.13-.34.08-.43-.29-.42-1,0-1.94,0-2.91,0a.42.42,0,0,0-.48.32q-4.5,12.43-9,24.87c0,.09-.05.19-.08.31h6.88l-.73,2.25c-1.2,3.61-2.39,7.21-3.57,10.83a.52.52,0,0,1-.6.41H687.36l-15.88,0H671a.79.79,0,0,1,.11-.53c1.51-4.19,3-8.38,4.53-12.57a.49.49,0,0,1,.57-.39c1.6,0,3.2,0,4.79,0a.52.52,0,0,0,.61-.4q4.47-12.32,9-24.6c.19-.52.19-.52-.37-.52-.9,0-1.81,0-2.72,0-.29,0-.4.09-.5.36-1,2.68-2,5.35-3,8a.59.59,0,0,1-.68.49c-4.41,0-8.83,0-13.24,0h-.5c.37-1,.73-2,1.1-3q3.43-9.48,6.86-19a.55.55,0,0,1,.62-.44H734.7Z"/><path class="cls-8" d="M502,1995.12h6.47l-.82,2.26c-1.32,3.6-2.65,7.19-4,10.79a.54.54,0,0,1-.6.42c-4.54,0-9.07,0-13.6,0H470.91c-.51,0-.51,0-.34-.46,1.53-4.21,3.07-8.42,4.58-12.64a.48.48,0,0,1,.54-.38c1.65,0,3.31,0,5,0a.44.44,0,0,0,.5-.36q4.49-12.37,9-24.74c.12-.34.08-.42-.29-.42-1.87,0-3.73,0-5.6,0-.36,0-.37-.09-.26-.39,1.54-4.27,3.09-8.54,4.62-12.82.09-.26.21-.41.5-.35h.13q27.63,0,55.26,0c7.72,0,15.45,0,23.17,0,.53,0,.53,0,.35.51q-2.29,6.32-4.56,12.65a.5.5,0,0,1-.57.38c-2.11,0-4.21,0-6.31,0a.47.47,0,0,0-.54.38l-9,24.68a.77.77,0,0,0-.1.46h7.83l-1.09,3c-1.22,3.35-2.44,6.69-3.64,10a.51.51,0,0,1-.59.41l-31,0c-.94,0-1.88,0-2.81,0-.33,0-.38-.08-.27-.38,1.56-4.27,3.1-8.53,4.64-12.81.1-.28.25-.3.5-.3h5a.46.46,0,0,0,.52-.35q4.47-12.42,9-24.83c0-.11.07-.22.12-.37h-.47l-22.9,0c-.28,0-.46,0-.57.34-1,2.67-1.94,5.33-2.91,8,0,0,0,.11-.06.21h12.55c-.37,1-.72,2-1.06,2.91q-1.19,3.24-2.36,6.48a.46.46,0,0,1-.52.38c-3.93,0-7.85,0-11.77,0a.5.5,0,0,0-.58.38c-.78,2.21-1.59,4.41-2.39,6.61Z"/><path class="cls-8" d="M1507.69,1977.25v-6.42h-8v-10l-.26.08-7.5,2.29-.15,0v7.57H1480v-4.22a6.68,6.68,0,0,1,1.31-4.47,4.6,4.6,0,0,1,3.65-1.49,8.4,8.4,0,0,1,3.47.79l.3.13v-6.77l-.14,0a13.69,13.69,0,0,0-4.44-.59,13,13,0,0,0-6.28,1.51,10.74,10.74,0,0,0-4.32,4.26,12.78,12.78,0,0,0-1.52,6.26v4.64h-5.56v6.42H1472v27.07h8v-27.07h11.83v17.21c0,7.08,3.34,10.67,9.94,10.67a16.11,16.11,0,0,0,3.38-.37,9.21,9.21,0,0,0,2.47-.79l.1-.06v-6.48l-.32.21a5.37,5.37,0,0,1-1.6.7,6.11,6.11,0,0,1-1.58.27,4.26,4.26,0,0,1-3.39-1.24c-.72-.83-1.09-2.28-1.09-4.3v-15.82Zm-59.06,21.36a8.47,8.47,0,0,1-6.79-2.85c-1.62-1.9-2.44-4.61-2.44-8s.82-6.34,2.44-8.27a8.33,8.33,0,0,1,6.72-2.9,8.2,8.2,0,0,1,6.55,2.77c1.58,1.85,2.39,4.61,2.39,8.2s-.76,6.43-2.25,8.3a8,8,0,0,1-6.62,2.8M1449,1970c-5.52,0-9.91,1.62-13,4.81s-4.71,7.61-4.71,13.13c0,5.25,1.55,9.47,4.6,12.54s7.21,4.63,12.34,4.63c5.36,0,9.66-1.64,12.78-4.88s4.71-7.61,4.71-13-1.48-9.57-4.41-12.63-7.07-4.6-12.27-4.6m-30.61,0a14.4,14.4,0,0,0-9.24,2.86,9.09,9.09,0,0,0-3.6,7.43,10.28,10.28,0,0,0,.78,4.15,8.32,8.32,0,0,0,2.38,3.12,21,21,0,0,0,4.85,2.71,35.81,35.81,0,0,1,4,1.88,5.67,5.67,0,0,1,1.78,1.45,3.34,3.34,0,0,1,.49,1.9c0,2.25-1.68,3.35-5.15,3.35a14.1,14.1,0,0,1-4.36-.8,16.22,16.22,0,0,1-4.47-2.26l-.33-.24v7.68l.12,0a18.94,18.94,0,0,0,4.23,1.31,22.39,22.39,0,0,0,4.52.52c4.07,0,7.36-1,9.75-2.87a9.3,9.3,0,0,0,3.64-7.61,8.71,8.71,0,0,0-2-5.75c-1.29-1.55-3.52-3-6.64-4.23a17.46,17.46,0,0,1-4.73-2.46,3.44,3.44,0,0,1-1-2.58,2.87,2.87,0,0,1,1.21-2.39,5.46,5.46,0,0,1,3.39-1,13.6,13.6,0,0,1,4,.63,13.07,13.07,0,0,1,3.53,1.63l.33.23v-7.29l-.13,0a16.74,16.74,0,0,0-3.58-1,22,22,0,0,0-3.93-.41m-33.63,28.59a8.47,8.47,0,0,1-6.79-2.85c-1.62-1.9-2.44-4.61-2.44-8s.82-6.34,2.44-8.27a8.33,8.33,0,0,1,6.72-2.9,8.2,8.2,0,0,1,6.55,2.77c1.58,1.85,2.39,4.61,2.39,8.2s-.76,6.43-2.25,8.3a8,8,0,0,1-6.62,2.8m.35-28.59c-5.52,0-9.91,1.62-13,4.81s-4.71,7.61-4.71,13.13c0,5.25,1.55,9.47,4.6,12.54s7.21,4.63,12.34,4.63c5.36,0,9.66-1.64,12.78-4.88s4.71-7.61,4.71-13-1.48-9.57-4.42-12.63-7.06-4.6-12.26-4.6m-29.86,6.61v-5.8h-7.88v33.49h7.88v-17.13a11.93,11.93,0,0,1,2-7.12,6,6,0,0,1,5.09-2.69,9.31,9.31,0,0,1,2.37.35,6.09,6.09,0,0,1,1.84.74l.33.24v-7.94l-.13-.06a8.18,8.18,0,0,0-3.08-.46,8.09,8.09,0,0,0-5.27,1.88,10.73,10.73,0,0,0-3,4.5Zm-22-6.61a19.54,19.54,0,0,0-9.58,2.3,15.53,15.53,0,0,0-6.32,6.5,20.73,20.73,0,0,0-2.17,9.63,17.79,17.79,0,0,0,2.11,8.63,14.78,14.78,0,0,0,5.9,6,17.5,17.5,0,0,0,8.61,2.09,19,19,0,0,0,9.51-2.22l.1-.06v-7.22l-.33.24a14.76,14.76,0,0,1-3.86,2,11.78,11.78,0,0,1-3.77.73,9.74,9.74,0,0,1-7.38-2.87,11.23,11.23,0,0,1-2.72-8,11.61,11.61,0,0,1,2.84-8.18,9.65,9.65,0,0,1,7.39-3,12.67,12.67,0,0,1,7.5,2.61l.33.24v-7.6l-.11-.06a12.92,12.92,0,0,0-3.64-1.24,22.15,22.15,0,0,0-4.41-.47m-23.5.81h-7.88v33.49h7.88Zm-3.86-14.27a4.76,4.76,0,0,0-3.35,1.31,4.34,4.34,0,0,0-1.41,3.29,4.23,4.23,0,0,0,1.39,3.22,4.82,4.82,0,0,0,3.37,1.28,4.87,4.87,0,0,0,3.39-1.28,4.18,4.18,0,0,0,1.41-3.22,4.42,4.42,0,0,0-1.37-3.25,4.69,4.69,0,0,0-3.43-1.35m-19.66,11.8v36h8v-46.74h-11.13L1269,1992.3l-13.73-34.72h-11.58v46.74h7.56v-36h.26l14.49,36h5.71l14.27-36Z"/><path class="cls-9" d="M1179.37,1979H1142.3V1942h37.07Z"/><path class="cls-10" d="M1220.3,1979h-37.07V1942h37.07V1979Z"/><path class="cls-11" d="M1179.37,2020H1142.3V1982.9h37.07Z"/><path class="cls-12" d="M1220.3,2020h-37.07V1982.9h37.07V2020Z"/><image width="320" height="72" transform="translate(770.02 1953.34) scale(1.05)" xlink:href="../../logo%20exp%20inc%20Wit.png"/></svg>