<svg id="Layer_1" data-name="Layer 1" xmlns="http://www.w3.org/2000/svg" xmlns:xlink="http://www.w3.org/1999/xlink" viewBox="0 0 1535.81 154.63"><defs><style>.cls-1{fill:#e21f26;}.cls-2{fill:#fff;}.cls-3{fill:#f05423;}.cls-4{fill:#84c441;}.cls-5{fill:#2dabe2;}.cls-6{fill:#f9bc15;}</style></defs><rect class="cls-1" width="1535.81" height="169.53"/><path id="path1127" class="cls-2" d="M190.93,75.49h5.59a1.12,1.12,0,0,0,1-1l1.19-6.5a1.16,1.16,0,0,0-.19-.81,1,1,0,0,0-.76-.38h-5.64a1,1,0,0,0-1,.81l-1.2,6.5a1.4,1.4,0,0,0,.19,1,1.1,1.1,0,0,0,.82.38"/><path id="path1121" class="cls-2" d="M370.05,77.36a.76.76,0,0,0-.24-.63,1,1,0,0,0-.77-.33h-5a.93.93,0,0,0-.95.72L362.68,79a11.8,11.8,0,0,0-3.87-2.3l-.52-.24a.36.36,0,0,0-.2,0c-5.49-1.2-11,.43-15.54,4.68a21.24,21.24,0,0,0-5.06,7.08l5-27a.85.85,0,0,0-.15-.67.67.67,0,0,0-.57-.28h-6.74a.61.61,0,0,0-.53.28S314.2,87.21,311,90.84c1.14-4.45,5.35-29.65,5.35-29.65v-.14a1.2,1.2,0,0,0-.14-.53.7.7,0,0,0-.58-.28h-7.07a.77.77,0,0,0-.58.28l-34,39.31a47,47,0,0,0-3.3-12c-4.45-9.13-14.3-12.24-20.13-7.31a3,3,0,0,0-.91.43c4.4-6.07,14.58-5.6,21.23,2A36.9,36.9,0,0,1,276,92a24.46,24.46,0,0,0,1-5.93,37.06,37.06,0,0,0-7.56-7.61c-8.32-5.59-18.22-3.54-20.94,3.4a4.48,4.48,0,0,0-.72,1.15c.77-7.46,9.85-12.15,19.37-8.85a35.33,35.33,0,0,1,9.27,5.45c0-.29-.14-.62-.19-.91A24.67,24.67,0,0,0,274,73.1a37.44,37.44,0,0,0-10.28-2.77c-10.23-.67-17.88,6.5-16.26,14.1,0,.15,0,.29,0,.43a3.5,3.5,0,0,0,0,.67c-3.44-6.93,2.11-15.78,12.2-17.74a37.27,37.27,0,0,1,10.57,0,24.08,24.08,0,0,0-5-4.06,35.62,35.62,0,0,0-10.18,2.72c-9.28,4.5-12.34,14.59-7.13,20.37a4.3,4.3,0,0,0,.63,1c-6.51-4.26-6.12-14.73,1.62-21.47a36.79,36.79,0,0,1,9.14-5.21,26.34,26.34,0,0,0-6.94-1.06,37.53,37.53,0,0,0-7.22,7.22c-5.78,8.61-3.35,18.94,4.16,21.23l.05,0,.1,0a4.44,4.44,0,0,0,.71.38c-7.74-.43-12.67-9.7-9.32-19.41a37.59,37.59,0,0,1,5-8.7,24.15,24.15,0,0,0-5.55,2.2A38,38,0,0,0,237.64,73c-.71,10.24,6.32,17.84,13.87,16.41H252a1.85,1.85,0,0,0,.76-.1c-6.88,3.39-15.73-2.15-17.69-12.19a35.87,35.87,0,0,1,0-10.24,24.87,24.87,0,0,0-4.3,5.41,38.31,38.31,0,0,0,2.63,9.7c4.54,9.33,14.73,12.39,20.46,7h.05l.1-.09a6.33,6.33,0,0,0,.71-.48C250.51,95,240,94.66,233.2,86.87A42.63,42.63,0,0,1,228,77.4a2.09,2.09,0,0,0-.33-.67,1.21,1.21,0,0,0-.81-.28h-5.07a1.09,1.09,0,0,0-1,.76,6.69,6.69,0,0,0-.48,1.77,13.42,13.42,0,0,0-3.64-2.1s-.67-.24-.71-.24c-5.5-1.34-11.05.38-15.59,4.64a20.89,20.89,0,0,0-5.64,8.56l-.1.19,2.29-12.39a1,1,0,0,0-.23-.81,1,1,0,0,0-.77-.34h-5.64a1,1,0,0,0-1,.82l-5.59,30.46a1.23,1.23,0,0,0,.19.81c.19.24.48.19.76.19h5.6c.48,0,.91-.19,1-.67l2.25-12.38c0,.09.15,2.63.34,3.87a12.85,12.85,0,0,0,9.42,9.9c3.87.72,8-.29,12.14-2.82-.09.43-.19,1.1-.19,1.1V108a.72.72,0,0,0,.19.52.92.92,0,0,0,.77.29h5c.48,0,.86-.19.95-.62l4.4-24a59.14,59.14,0,0,0,7.65,7.32c8.37,5.64,18.32,3.49,21-3.49a6.45,6.45,0,0,0,.66-1c-.76,7.46-9.85,12.1-19.36,8.85a36.79,36.79,0,0,1-8.7-5c0,.19,0,.33.09.53a24.76,24.76,0,0,0,2.3,5.83,36.25,36.25,0,0,0,9.66,2.53c10.23.72,17.83-6.36,16.4-13.86a3.74,3.74,0,0,0,.05-.77v-.29c3.2,6.89-2.35,15.55-12.29,17.51a37.64,37.64,0,0,1-10.05,0,24.2,24.2,0,0,0,4.5,3.73,38,38,0,0,0,10.09-2.67c9.08-4.45,12.19-14.16,7.46-20a4.51,4.51,0,0,0-.67-1.15c6.26,4.35,5.78,14.63-1.87,21.33a36.9,36.9,0,0,1-9.27,5.26,24.8,24.8,0,0,0,6.69,1.24,37.71,37.71,0,0,0,7.6-7.51c5.79-8.6,3.35-18.89-4.11-21.23a6.49,6.49,0,0,0-1-.48c7.79.43,12.72,9.66,9.37,19.42a36.58,36.58,0,0,1-5.45,9.27c.28,0,.57-.14.91-.19a26,26,0,0,0,5.35-2,37.77,37.77,0,0,0,2.87-10.43c.72-10-6.12-17.59-13.53-16.45a7,7,0,0,0-1-.09h-.19c6.84-3,15.35,2.53,17.26,12.38A29,29,0,0,1,269.3,103a12.45,12.45,0,0,1-1.15,3.2c-.19.33-.43.76-.72,1.24,0,0,0,0,0,0a.91.91,0,0,0-.05.72.68.68,0,0,0,.67.43h8a.83.83,0,0,0,.58-.24s26.34-28.31,29.36-31.94c-1.15,6-3.49,20.46-5.65,31.32v.14a.93.93,0,0,0,.15.48.68.68,0,0,0,.57.29h6.27a.81.81,0,0,0,.57-.24s21.23-28.26,24.34-31.95c-1.29,6-3.54,20.61-5.69,31.28V108a1,1,0,0,0,.14.48.68.68,0,0,0,.57.28h6.22a.77.77,0,0,0,.72-.57L336.43,95v.81c0,1.25-.43,2.49-.24,3.73a12.88,12.88,0,0,0,9.42,9.9c3.88.72,8-.28,12.15-2.82-.1.43-.19,1.1-.19,1.1v.19a1,1,0,0,0,.24.62c.19.24.48.2.76.2h5a.87.87,0,0,0,1-.67l4.54-24.1,1-6.55m-151.48,16c-1.15,4-4.59,7.65-8.28,8.56a9.57,9.57,0,0,1-6.6-.72,7.78,7.78,0,0,1-2.82-4.5,5.89,5.89,0,0,1-.19-1.72c0-3.63,2-7.12,5.5-9.8a9.54,9.54,0,0,1,7.27-1.44A6.79,6.79,0,0,1,217.9,87a8.23,8.23,0,0,1,1,4.06,7.31,7.31,0,0,1-.33,2.3m142.2,0c-1.24,4-4.92,7.74-8.6,8.65-2.83.48-4.88.1-6.32-.81a7.62,7.62,0,0,1-2.87-4.5,11,11,0,0,1-.14-1.72c0-3.63,2-7.12,5.5-9.8a9.54,9.54,0,0,1,7.27-1.44A6.77,6.77,0,0,1,360.05,87,8.2,8.2,0,0,1,361,91a5.11,5.11,0,0,1-.24,2.3"/><path id="path1123" class="cls-2" d="M425.32,76.73a.93.93,0,0,0-.76-.33h-5.69c.29-1.77,1.58-8.37,1.58-8.37v-.14a1,1,0,0,0-.24-.62,1,1,0,0,0-.77-.34H413.8a1,1,0,0,0-1,.81s-1.38,7.42-1.62,8.75h-3.16a1,1,0,0,0-.86.43,1,1,0,0,0-.81-.43h-6.5a1,1,0,0,0-.72.29s-4.54,5.79-7.22,8.7c.76-4.59,3.2-17.35,3.2-17.35V68a1,1,0,0,0-.24-.62.93.93,0,0,0-.76-.33H388.6a1,1,0,0,0-1,.81c-.15.76-.91,4.35-1.63,8.8a0,0,0,0,0,0,0,.86.86,0,0,0-.76-.38,13.41,13.41,0,0,0-6.7,2.2l.15-.72a1.22,1.22,0,0,0-.2-.81.9.9,0,0,0-.76-.29h-5.07a1,1,0,0,0-1,.72l-.14.76-5.4,29.6a1,1,0,0,0,1,1.1H372a.94.94,0,0,0,1-.76l3.73-18.37c1.24-4.63,4.3-6,7-6.45a2.15,2.15,0,0,0,.81-.1c-1.87,11.14-4.11,24.34-4.11,24.58a.87.87,0,0,0,.24.77.93.93,0,0,0,.76.33h5.45a1,1,0,0,0,1-.67c.14-.52,1.58-8.08,2.39-12.67,2,3.06,7.94,12.91,7.94,12.91a.93.93,0,0,0,.81.43H405c.1,0,.24-.14.34-.19a.79.79,0,0,0,.43.19h6.36a1,1,0,0,0,.95-.81s4.31-23,4.55-24.58h6.07a1,1,0,0,0,1-.81l.86-4.93V77.5a1.18,1.18,0,0,0-.2-.77M405.77,106c-2.25-3.63-8.66-14.15-9.23-15.06.76-.91,8.75-10.62,10.38-12.53l-.72,3.78a1.23,1.23,0,0,0,.19.81.94.94,0,0,0,.76.33h2.78c-.29,1.73-3.3,17.6-4.16,22.67"/><path id="path1125" class="cls-2" d="M189.3,67.22a1,1,0,0,0-.76-.34h-5.07a1,1,0,0,0-1,.77s-1.72,8.46-2.34,11.24a13.08,13.08,0,0,0-3.68-2.11l-.53-.24a.27.27,0,0,0-.19-.05,17,17,0,0,0-15.54,4.69,21.18,21.18,0,0,0-5.69,8.56,19.6,19.6,0,0,0-1.77-7.12l-.05-.05c-2.63-4.4-7.07-6.55-12.81-6.27h-.1A21.16,21.16,0,0,0,124,87.3l-.14.29,4.83-26.3a.66.66,0,0,0-.15-.62.68.68,0,0,0-.57-.29h-6.6a.59.59,0,0,0-.52.29S100.41,87.3,97.21,90.94c1-4.55,5.3-29.6,5.3-29.6v-.15a.85.85,0,0,0-.14-.47.65.65,0,0,0-.57-.29H95.39a.71.71,0,0,0-.57.29l-40.6,46.66a.67.67,0,0,0-.1.77.81.81,0,0,0,.67.48h8.13a.71.71,0,0,0,.58-.29s25.77-29.17,28.78-32.8c-1.15,6-3.58,21.37-5.93,32.18v.14a.87.87,0,0,0,.15.48.68.68,0,0,0,.57.29h6.31a.71.71,0,0,0,.58-.29s21.42-29.17,24.57-32.85c-1.29,6-3.34,21.52-5.88,32.23v.19a.66.66,0,0,0,.15.43.68.68,0,0,0,.57.29h6.07a.76.76,0,0,0,.72-.58l2.34-12.38a15.39,15.39,0,0,0,1.63,7.36,13.07,13.07,0,0,0,11.14,6.46,18.5,18.5,0,0,0,16.5-10.38,1,1,0,0,0-.86-1.43h-5.22A.85.85,0,0,0,145,98c-2.49,2.78-5.26,4.21-8.23,4.26A7,7,0,0,1,130,97.92a1.72,1.72,0,0,1-.09-.34,5.72,5.72,0,0,1-.29-1.34.56.56,0,0,1,0-.28H153a1.16,1.16,0,0,0,.67-.24,19.68,19.68,0,0,0,.34,3.73,12.84,12.84,0,0,0,9.42,9.89c3.87.72,8-.28,12.14-2.82-.1.43-.19,1.1-.19,1.1v.19a1,1,0,0,0,.24.63c.19.24.48.19.76.19h5a.87.87,0,0,0,1-.62l7.17-40a1,1,0,0,0-.19-.81M131.73,88.74a10.39,10.39,0,0,1,7.51-5c3-.19,4.4.53,5.69,1.63a5.56,5.56,0,0,1,1.86,3.4c-1.58,0-12.72,0-15.06,0m47,2.43a9.55,9.55,0,0,1-.29,2.2A12.66,12.66,0,0,1,170,102c-2.82.53-5,.19-6.45-.72a7.37,7.37,0,0,1-2.87-4.49,8.56,8.56,0,0,1-.19-1.77c0-3.63,2.05-7.13,5.59-9.8a9.54,9.54,0,0,1,7.27-1.44,7.14,7.14,0,0,1,4.35,3.3,7.46,7.46,0,0,1,1,4.11"/><path id="path1129" class="cls-2" d="M425.28,66.64a3.45,3.45,0,1,1-3.45,3.45,3.46,3.46,0,0,1,3.45-3.45m0,6.32a2.83,2.83,0,1,0-2.82-2.82A2.83,2.83,0,0,0,425.28,73m-.67-1h-.82V68.22h1.73c.24,0,1.43,0,1.43,1.1a1.09,1.09,0,0,1-.67,1L427,72h-.86l-.62-1.48h-.91l.05,1.48Zm0-2.1h.81c.29,0,.72,0,.72-.53,0-.24-.15-.48-.62-.48h-.91Z"/><path class="cls-2" d="M645.3,61.52c.76.09,1.52.17,2.28.27a14.83,14.83,0,0,1,9.7,4.88c.23.26.44.53.65.8s.4.53.65.86c.48-1.33.94-2.59,1.39-3.85.17-.45.34-.89.48-1.34a.42.42,0,0,1,.48-.34c.82,0,1.64,0,2.46,0h11.06c.41,0,.45.09.31.47q-3.21,8.77-6.39,17.57a.48.48,0,0,1-.55.37q-6.08,0-12.16,0c-.42,0-.51-.12-.53-.51a8.46,8.46,0,0,0-10.44-8.41,3.37,3.37,0,0,0-1.11.45,2.54,2.54,0,0,0-.47,4.37,16.9,16.9,0,0,0,2.86,2c2.79,1.63,5.67,3.09,8.42,4.78a37.32,37.32,0,0,1,7.3,5.57,14.65,14.65,0,0,1,4,6.64,15.23,15.23,0,0,1-.76,9.24,16.56,16.56,0,0,1-9.82,9.6,25,25,0,0,1-12.28,1.54,23.21,23.21,0,0,1-10.28-3.56,12.77,12.77,0,0,1-3.54-3.38c-.43,1.23-.85,2.4-1.25,3.58a.75.75,0,0,1-.55.55c-3.06.91-6.09,1.92-9.23,2.57a38.87,38.87,0,0,1-15.31.23,16,16,0,0,1-6-2.33,8.52,8.52,0,0,1-4.06-7.37,37.56,37.56,0,0,1,.36-4.49c.17-1.49.38-3,.51-4.48a4,4,0,0,0-1-3.19,3.17,3.17,0,0,0-2.27-1c-.74,0-1.49,0-2.24,0-.2,0-.28.07-.35.25-.93,2.63-1.87,5.25-2.8,7.88a1.93,1.93,0,0,0,0,.2h5c-.44,1.2-.86,2.37-1.28,3.54q-1.74,4.78-3.47,9.59a.45.45,0,0,1-.51.34H553.23c.26-.71.49-1.38.73-2,1.33-3.65,2.67-7.31,4-11a.58.58,0,0,1,.67-.45c1.59,0,3.19,0,4.79,0a.5.5,0,0,0,.57-.39q4.46-12.36,8.95-24.7c.12-.34.11-.45-.3-.44-1.85,0-3.7,0-5.55,0-.31,0-.41,0-.28-.38q2.33-6.41,4.61-12.82c.11-.31.29-.35.57-.35h24c2.25,0,4.5-.07,6.75,0a30.48,30.48,0,0,1,10.47,2,14.37,14.37,0,0,1,5.19,3.47,10,10,0,0,1,2.6,7.72,13.72,13.72,0,0,1-2.53,7.36A14.19,14.19,0,0,1,610,88.86a17.46,17.46,0,0,1-3.34.47c.17.18.39.18.57.25A8.53,8.53,0,0,1,613,96.21a13.41,13.41,0,0,1-.17,5,20.9,20.9,0,0,0-.43,2.23c-.07.83.2,1.34.78,1.53a1.59,1.59,0,0,0,1.94-.68,15.8,15.8,0,0,0,1.23-3.09c.53-1.5,1-3,1.54-4.51a.42.42,0,0,1,.47-.35h13.83c.19,0,.37,0,.36.27-.05,3,1.47,5.13,3.79,6.79a8.69,8.69,0,0,0,4.84,1.64,6,6,0,0,0,1.68-.19,2.77,2.77,0,0,0,2.1-3.34A5.62,5.62,0,0,0,642.82,98a33.46,33.46,0,0,0-5.57-3.7,67.9,67.9,0,0,1-7.81-4.92,19.75,19.75,0,0,1-3.65-3.6,11.46,11.46,0,0,1-2.32-7.74,17.12,17.12,0,0,1,2.24-7.8,16.75,16.75,0,0,1,9.3-7.46,22.24,22.24,0,0,1,5.93-1.2c.09,0,.19,0,.24-.07Zm-51.61,23.9a21.5,21.5,0,0,0,2.94-.12c2.77-.44,4.78-2.13,5-4.94a3.32,3.32,0,0,0-3.27-3.91c-1.34-.07-2.69,0-4,0-.22,0-.3.09-.37.28l-3.1,8.4c-.09.23-.07.34.22.33C591.94,85.41,592.74,85.42,593.69,85.42Z"/><path class="cls-2" d="M734.7,63c-.52,1.15-.9,2.35-1.33,3.53Q730,75.63,726.69,84.8a.52.52,0,0,1-.6.41H712.16c.26-.71.5-1.39.76-2.08q1.17-3.2,2.36-6.39c.13-.34.08-.42-.29-.41-1,0-1.94,0-2.91,0a.42.42,0,0,0-.48.32q-4.5,12.45-9,24.87c0,.1-.05.19-.08.31h6.88l-.73,2.26q-1.8,5.4-3.57,10.82a.52.52,0,0,1-.6.42c-5.71,0-11.42,0-17.13,0H671a.79.79,0,0,1,.11-.53c1.51-4.19,3-8.37,4.53-12.56a.5.5,0,0,1,.57-.4c1.6,0,3.2,0,4.79,0a.53.53,0,0,0,.61-.41q4.47-12.3,9-24.6c.19-.51.19-.52-.37-.51-.9,0-1.81,0-2.72,0-.29,0-.4.1-.5.36-1,2.68-2,5.35-3,8a.6.6,0,0,1-.68.49q-6.61,0-13.24,0h-.5c.37-1,.73-2,1.1-3q3.43-9.48,6.86-19a.54.54,0,0,1,.62-.43H734.7Z"/><path class="cls-2" d="M502,102h6.47l-.82,2.27c-1.32,3.59-2.65,7.18-4,10.78a.53.53,0,0,1-.6.42l-13.6,0H470.91c-.51,0-.51,0-.34-.47,1.53-4.21,3.07-8.42,4.58-12.64a.47.47,0,0,1,.54-.37c1.65,0,3.31,0,5,0a.43.43,0,0,0,.5-.36q4.49-12.37,9-24.74c.12-.33.08-.42-.29-.41-1.87,0-3.73,0-5.6,0-.36,0-.37-.09-.26-.39,1.54-4.27,3.09-8.54,4.62-12.82.09-.26.21-.4.5-.35h.13q27.63,0,55.26,0c7.72,0,15.45,0,23.17,0,.53,0,.53,0,.35.51q-2.29,6.32-4.56,12.65a.5.5,0,0,1-.57.38h-6.31a.47.47,0,0,0-.54.37l-9,24.69a.73.73,0,0,0-.1.46h7.83c-.38,1-.73,2-1.09,3q-1.83,5-3.64,10a.52.52,0,0,1-.59.42q-15.48,0-31,0c-.94,0-1.88,0-2.81,0-.33,0-.38-.07-.27-.38q2.34-6.39,4.64-12.8c.1-.28.25-.31.5-.31h5a.46.46,0,0,0,.52-.34q4.47-12.42,9-24.83c0-.11.07-.22.12-.37H511.74c-.28,0-.46,0-.57.34-1,2.67-1.94,5.33-2.91,8l-.06.21h12.55c-.37,1-.72,2-1.06,2.92-.79,2.16-1.58,4.31-2.36,6.48a.45.45,0,0,1-.52.37H505a.5.5,0,0,0-.58.39c-.78,2.2-1.59,4.4-2.39,6.61Z"/><path class="cls-2" d="M1507.69,84.14V77.71h-8v-10l-.26.08-7.5,2.3-.15,0v7.57H1480V73.49a6.65,6.65,0,0,1,1.31-4.46,4.6,4.6,0,0,1,3.65-1.5,8.56,8.56,0,0,1,3.47.79l.3.13V61.69l-.14-.06a13.69,13.69,0,0,0-4.44-.59,13,13,0,0,0-6.28,1.51,10.76,10.76,0,0,0-4.32,4.27,12.74,12.74,0,0,0-1.52,6.25v4.64h-5.56v6.43H1472v27.07h8V84.14h11.83v17.2c0,7.08,3.34,10.68,9.94,10.68a16.14,16.14,0,0,0,3.38-.38,9.68,9.68,0,0,0,2.47-.78l.1-.06v-6.49l-.32.21a5.37,5.37,0,0,1-1.6.7,6.11,6.11,0,0,1-1.58.27,4.26,4.26,0,0,1-3.39-1.23c-.72-.83-1.09-2.28-1.09-4.31V84.14Zm-59.06,21.35a8.47,8.47,0,0,1-6.79-2.85c-1.62-1.9-2.44-4.61-2.44-8s.82-6.33,2.44-8.27a8.33,8.33,0,0,1,6.72-2.89,8.2,8.2,0,0,1,6.55,2.77c1.58,1.84,2.39,4.6,2.39,8.2s-.76,6.43-2.25,8.3a8,8,0,0,1-6.62,2.79M1449,76.9c-5.52,0-9.91,1.62-13,4.81s-4.71,7.61-4.71,13.14c0,5.24,1.55,9.46,4.6,12.53S1443,112,1448.17,112c5.36,0,9.66-1.64,12.78-4.87s4.71-7.61,4.71-13-1.48-9.58-4.41-12.63-7.07-4.61-12.27-4.61m-30.61,0a14.4,14.4,0,0,0-9.24,2.86,9.12,9.12,0,0,0-3.6,7.43,10.36,10.36,0,0,0,.78,4.16,8.37,8.37,0,0,0,2.38,3.11,21,21,0,0,0,4.85,2.71,35.81,35.81,0,0,1,4,1.88,5.68,5.68,0,0,1,1.78,1.46,3.34,3.34,0,0,1,.49,1.9c0,2.25-1.68,3.34-5.15,3.34a14.1,14.1,0,0,1-4.36-.8,16.22,16.22,0,0,1-4.47-2.26l-.33-.24v7.68l.12.06a19.5,19.5,0,0,0,4.23,1.3,22.46,22.46,0,0,0,4.52.53c4.07,0,7.36-1,9.75-2.88a9.28,9.28,0,0,0,3.64-7.6,8.74,8.74,0,0,0-2-5.76c-1.29-1.55-3.52-3-6.64-4.23a16.9,16.9,0,0,1-4.73-2.46,3.44,3.44,0,0,1-1-2.58,2.85,2.85,0,0,1,1.21-2.38,5.4,5.4,0,0,1,3.39-1,13.92,13.92,0,0,1,4,.62,12.79,12.79,0,0,1,3.53,1.64l.33.22V78.36l-.13,0a17.35,17.35,0,0,0-3.58-1,22,22,0,0,0-3.93-.41m-33.63,28.59a8.47,8.47,0,0,1-6.79-2.85c-1.62-1.9-2.44-4.61-2.44-8s.82-6.33,2.44-8.27a8.33,8.33,0,0,1,6.72-2.89,8.2,8.2,0,0,1,6.55,2.77c1.58,1.84,2.39,4.6,2.39,8.2s-.76,6.43-2.25,8.3a8,8,0,0,1-6.62,2.79m.35-28.59c-5.52,0-9.91,1.62-13,4.81s-4.71,7.61-4.71,13.14c0,5.24,1.55,9.46,4.6,12.53s7.21,4.63,12.34,4.63c5.36,0,9.66-1.64,12.78-4.87s4.71-7.61,4.71-13-1.48-9.58-4.42-12.63-7.06-4.61-12.26-4.61m-29.86,6.61v-5.8h-7.88v33.5h7.88V94.07a11.87,11.87,0,0,1,2-7.11,6,6,0,0,1,5.09-2.69,9.27,9.27,0,0,1,2.37.34,5.81,5.81,0,0,1,1.84.75l.33.24V77.65l-.13-.05a8.9,8.9,0,0,0-8.35,1.42,10.63,10.63,0,0,0-3,4.49Zm-22-6.61a19.43,19.43,0,0,0-9.58,2.31,15.47,15.47,0,0,0-6.32,6.5,20.66,20.66,0,0,0-2.17,9.62,17.76,17.76,0,0,0,2.11,8.63,14.78,14.78,0,0,0,5.9,6,17.51,17.51,0,0,0,8.61,2.1,18.87,18.87,0,0,0,9.51-2.23l.1-.06v-7.22l-.33.24a14.46,14.46,0,0,1-3.86,2,11.51,11.51,0,0,1-3.77.73,9.7,9.7,0,0,1-7.38-2.87c-1.8-1.91-2.72-4.59-2.72-8a11.6,11.6,0,0,1,2.84-8.17,9.62,9.62,0,0,1,7.39-3,12.6,12.6,0,0,1,7.5,2.61l.33.24V78.67l-.11-.06a12.94,12.94,0,0,0-3.64-1.23,21.47,21.47,0,0,0-4.41-.48m-23.5.81h-7.88v33.5h7.88Zm-3.86-14.27a4.72,4.72,0,0,0-3.35,1.32,4.31,4.31,0,0,0-1.41,3.28,4.21,4.21,0,0,0,1.39,3.22,4.78,4.78,0,0,0,3.37,1.29,4.87,4.87,0,0,0,3.39-1.28,4.2,4.2,0,0,0,1.41-3.23,4.42,4.42,0,0,0-1.37-3.25,4.73,4.73,0,0,0-3.43-1.35m-19.66,11.8v36h8V64.47h-11.13L1269,99.18l-13.73-34.71h-11.58v46.74h7.56v-36h.26l14.49,36h5.71l14.27-36Z"/><path class="cls-3" d="M1179.37,85.91H1142.3V48.85h37.07Z"/><path class="cls-4" d="M1220.3,85.91h-37.07V48.85h37.07V85.91Z"/><path class="cls-5" d="M1179.37,126.85H1142.3V89.79h37.07Z"/><path class="cls-6" d="M1220.3,126.85h-37.07V89.79h37.07v37.06Z"/><image width="320" height="72" transform="translate(770.02 60.23) scale(1.05)" xlink:href="../../logo%20exp%20inc%20Wit.png"/></svg>